# xmcd CD database file
#
# Track frame offsets:
#	150
#	18053
#	34123
#	48288
#	62679
#	76943
#	89549
#	101578
#	115415
#	128455
#	142298
#	154165
#	168473
#	178827
#	193296
#	206469
#	218470
#
# Disc length: 3076 seconds
#
# Revision: 2
# Processed by: cddbd v1.5.1PL2 Copyright (c) Steve Scherf et al.
# Submitted via: CDex 1.51
#
DISCID=e80c0211
DTITLE=Muddy Waters - The Ultimate Jazz Archive - Muddy Waters
DYEAR=2005
DGENRE=Blues
TTITLE0=Country Blues
TTITLE1=I Be's Troubled 
TTITLE2=Burr Clover Farm Blues
TTITLE3=Take A Walk With Me
TTITLE4=Burr Clover Blues
TTITLE5=Walkin' Blues
TTITLE6=Can't Be Satisfied
TTITLE7=Gipsy Woman
TTITLE8=Mean Red Spider
TTITLE9=I Feel Like Going Home
TTITLE10=Little Anna Mae
TTITLE11=Train Fare Home Blues
TTITLE12=Little Geneva
TTITLE13=Rollin' And Tumblin
TTITLE14=Streamline Woman
TTITLE15=Rolling Stone
TTITLE16=You Gonna Miss Me
EXTD=keine Angaben zu den Daten der Aufnahmen verfügbar YEAR: 2005
EXTT0=
EXTT1=
EXTT2=
EXTT3=
EXTT4=
EXTT5=
EXTT6=
EXTT7=
EXTT8=
EXTT9=
EXTT10=
EXTT11=
EXTT12=
EXTT13=
EXTT14=
EXTT15=
EXTT16=
PLAYORDER=
